<svg style="fill:#7c334f;" xmlns="http://www.w3.org/2000/svg" viewBox="0 0 64 64"><path d="M 46.068359 15.019531 C 44.479359 15.041531 42.853 15.192094 41.25 15.621094 C 39.644 16.029094 38.090094 16.77125 36.746094 17.65625 C 35.397094 18.54325 34.241656 19.504281 33.097656 20.238281 C 31.956656 20.982281 30.792719 21.487953 29.511719 21.751953 C 28.236719 22.024953 26.868891 22.0315 25.462891 21.9375 C 24.073891 21.8365 22.713859 21.586125 21.380859 21.203125 C 20.043859 20.821125 18.744234 20.291031 17.365234 19.707031 C 15.985234 19.136031 14.493875 18.502312 12.796875 18.195312 C 11.080875 17.910312 9.3668594 17.93625 7.6308594 18.40625 C 5.9168594 18.87325 4.1296094 19.965219 3.0996094 21.699219 C 2.5796094 22.547219 2.2855313 23.497969 2.1445312 24.417969 C 2.1194762 24.550931 2.1112616 24.679996 2.0976562 24.810547 L 2.09375 24.810547 L 2.09375 24.849609 C 2.0630494 25.164268 2.0462565 25.476833 2.0332031 25.794922 C 2.0359162 26.015585 2.0503985 26.229963 2.0683594 26.441406 L 2.0078125 30.375 L 2.0019531 31.765625 C 2.0029531 32.245625 1.9826719 32.647375 2.0136719 33.234375 C 2.0736719 34.323375 2.3043281 35.333781 2.6113281 36.300781 C 3.8743281 40.151781 6.2747813 43.384281 9.1757812 45.988281 C 12.097781 48.579281 15.554078 50.51425 19.205078 51.78125 C 22.861078 53.04825 26.699625 53.687453 30.515625 53.814453 C 34.305625 53.928453 38.058703 53.797078 41.845703 53.205078 C 45.609703 52.615078 49.4215 51.616016 52.9375 49.666016 C 54.6825 48.687016 56.343953 47.453875 57.751953 45.921875 C 59.166953 44.401875 60.310047 42.566688 60.998047 40.554688 C 61.345047 39.550687 61.581406 38.506359 61.691406 37.443359 C 61.751406 36.876359 61.753297 36.469953 61.779297 36.001953 L 61.84375 34.632812 C 61.93775 32.806813 61.989953 30.975625 62.001953 29.140625 L 61.953125 29.136719 C 61.905309 27.854921 61.723636 26.622482 61.40625 25.365234 C 60.98825 23.750234 60.305547 22.159141 59.310547 20.744141 C 58.323547 19.324141 57.002109 18.127188 55.537109 17.242188 C 52.564109 15.476188 49.205359 15.004531 46.068359 15.019531 z M 46.068359 18.234375 C 48.853359 18.266375 51.615391 18.777906 53.775391 20.128906 C 55.940391 21.461906 57.369891 23.667562 57.962891 26.226562 C 58.262891 27.482563 58.395078 28.884531 58.330078 30.144531 C 58.273078 31.348531 57.897406 32.54225 57.316406 33.65625 C 56.143406 35.90025 54.099063 37.770891 51.789062 39.212891 C 47.104063 42.114891 41.394031 43.445094 35.707031 43.871094 C 34.286031 43.981094 32.826969 44.034719 31.417969 44.011719 C 30.015969 44.013719 28.621281 43.863922 27.238281 43.669922 C 24.478281 43.241922 21.786766 42.41475 19.259766 41.21875 C 16.723766 40.04275 14.369531 38.467234 12.269531 36.615234 C 10.180531 34.759234 8.333 32.587078 7 30.205078 C 6.335 29.023078 5.8080781 27.764797 5.5800781 26.591797 C 5.5270781 26.300797 5.4972813 26.025578 5.4882812 25.767578 C 5.5012813 25.488578 5.4899688 25.183969 5.5429688 24.917969 C 5.6179687 24.369969 5.7654844 23.862594 6.0214844 23.433594 C 6.5164844 22.571594 7.4147812 21.945563 8.5507812 21.601562 C 9.6887812 21.266563 11.023141 21.210438 12.244141 21.398438 C 14.726141 21.801438 17.445875 23.388453 20.546875 24.189453 C 22.083875 24.604453 23.677672 24.868031 25.263672 24.957031 C 26.829672 25.022031 28.464234 25.044219 30.115234 24.699219 C 31.760234 24.375219 33.374516 23.667203 34.728516 22.783203 C 36.094516 21.906203 37.231484 20.948469 38.396484 20.230469 C 40.669484 18.738469 43.266359 18.203375 46.068359 18.234375 z M 45.474609 21 C 37.666609 21 37.326844 27 27.214844 27 C 21.235844 27 17.376922 25.163859 16.044922 24.630859 C 14.718922 24.099859 13.0555 23.289062 11.1875 23.289062 C 9.6315 23.289062 8.0393906 24.003594 7.9003906 25.058594 C 7.7313906 26.342594 8.3724531 27.951859 8.9394531 29.005859 C 14.366453 39.091859 25.366969 42.019531 32.417969 42.019531 C 50.046969 42.019531 55 33.721 55 29 C 55 23 50.301609 21 45.474609 21 z M 45 26 C 47 26 49 27.5 49 29 C 49 30.5 47 32 45 32 C 43 32 41 30.5 41 29 C 41 27.5 43 26 45 26 z"></path></svg>
